<svg width="500" height="200" viewBox="0 0 500 200" fill="none" xmlns="http://www.w3.org/2000/svg">
<path d="M0 15C0 6.71573 6.71573 0 15 0H485C493.284 0 500 6.71573 500 15V185C500 193.284 493.284 200 485 200H15C6.71571 200 0 193.284 0 185V15Z" fill="#8BF082" fill-opacity="0.72"/>
<path d="M42 23V181.5H413" stroke="black" stroke-width="5"/>
<path d="M44 178C73.2 148.8 83.5 138.5 85 137L123 101L169 39L250 58L303 87.5L374 137" stroke="#DB1515" stroke-width="5"/>
<path d="M41.5 5L50.5933 19.25H32.4067L41.5 5Z" fill="black"/>
<path d="M433 181.5L418 189.727V173.273L433 181.5Z" fill="black"/>
<path d="M77 182V167" stroke="black" stroke-width="5"/>
<path d="M59.5 125.5H44.5" stroke="black" stroke-width="5"/>
<path d="M60 93H45" stroke="black" stroke-width="5"/>
<path d="M60.5 60.5H45.5" stroke="black" stroke-width="5"/>
<path d="M113 182V167" stroke="black" stroke-width="5"/>
<path d="M149 182V167" stroke="black" stroke-width="5"/>
<path d="M185 182V167" stroke="black" stroke-width="5"/>
<path d="M221 182V167" stroke="black" stroke-width="5"/>
<path d="M257 182V167" stroke="black" stroke-width="5"/>
<path d="M293 182V167" stroke="black" stroke-width="5"/>
<path d="M329 182V167" stroke="black" stroke-width="5"/>
<path d="M365 182V167" stroke="black" stroke-width="5"/>
<path d="M401 182V167" stroke="black" stroke-width="5"/>
<path d="M389.661 148.49L373.457 145.633L384.034 133.028L389.661 148.49Z" fill="#DB1515"/>
</svg>
