<svg width="500" height="200" viewBox="0 0 500 200" fill="none" xmlns="http://www.w3.org/2000/svg">
<rect width="500" height="200" rx="15" fill="#E14141"/>
<path d="M237 24C237 200.5 237 97.5 237 152" stroke="black" stroke-width="5"/>
<path d="M178.5 46C355 46 242 46 296.5 46" stroke="black" stroke-width="5"/>
<path d="M178.5 154C355 154 241.5 154 296 154" stroke="black" stroke-width="5"/>
<circle cx="237" cy="46" r="25" fill="black"/>
<path d="M154.786 105.5L179.5 62.0561L204.214 105.5H154.786Z" stroke="black" stroke-width="5"/>
<path d="M270.786 105.5L295.5 62.0561L320.214 105.5H270.786Z" stroke="black" stroke-width="5"/>
<path d="M208.5 103.75C208.5 107.526 207.756 111.264 206.312 114.752C204.867 118.24 202.749 121.41 200.079 124.079C197.41 126.749 194.24 128.867 190.752 130.312C187.264 131.756 183.526 132.5 179.75 132.5C175.974 132.5 172.236 131.756 168.748 130.312C165.26 128.867 162.09 126.749 159.421 124.079C156.751 121.41 154.633 118.24 153.188 114.752C151.744 111.264 151 107.526 151 103.75L179.75 103.75H208.5Z" fill="black"/>
<path d="M324.5 103.75C324.5 107.526 323.756 111.264 322.312 114.752C320.867 118.24 318.749 121.41 316.079 124.079C313.41 126.749 310.24 128.867 306.752 130.312C303.264 131.756 299.526 132.5 295.75 132.5C291.974 132.5 288.236 131.756 284.748 130.312C281.26 128.867 278.09 126.749 275.421 124.079C272.751 121.41 270.633 118.24 269.188 114.752C267.744 111.264 267 107.526 267 103.75L295.75 103.75H324.5Z" fill="black"/>
<path d="M372.043 119.27C358.51 122.271 337 124.926 337 124.926L370.497 164C370.497 164 414.816 154.231 406.055 142.921C397.294 131.61 420.976 130.932 421 121.841C421.047 103.916 390.595 115.157 372.043 119.27Z" stroke="#62FFFF"/>
<path d="M346 147L353.5 136L344.023 127.803" stroke="black" stroke-width="5"/>
<line x1="333.92" y1="149.203" x2="332.048" y2="178.225" stroke="black" stroke-width="5"/>
<path d="M331.961 127.249L323 135L329 146.5" stroke="black" stroke-width="5"/>
<rect x="329.553" y="123.298" width="16.8511" height="26.6809" fill="#22595E"/>
<ellipse cx="337.511" cy="105.043" rx="11.7021" ry="14.0426" fill="#D9D9D9"/>
<line x1="343.752" y1="149.845" x2="345.156" y2="176.058" stroke="black" stroke-width="5"/>
<rect x="326.277" y="176.191" width="8.89362" height="2.80851" fill="black"/>
<rect x="340.319" y="176.191" width="8.89362" height="2.80851" fill="black"/>
</svg>
