<svg width="500" height="200" viewBox="0 0 500 200" fill="none" xmlns="http://www.w3.org/2000/svg">
<rect width="500" height="200" rx="15" fill="#00AAAA"/>
<path d="M214 71L219.613 88.2746H237.776L223.082 98.9508L228.695 116.225L214 105.549L199.305 116.225L204.918 98.9508L190.224 88.2746H208.387L214 71Z" fill="#EFDF89"/>
<path d="M269 71L274.613 88.2746H292.776L278.082 98.9508L283.695 116.225L269 105.549L254.305 116.225L259.918 98.9508L245.224 88.2746H263.387L269 71Z" fill="#EFDF89"/>
<path d="M324 71L329.613 88.2746H347.776L333.082 98.9508L338.695 116.225L324 105.549L309.305 116.225L314.918 98.9508L300.224 88.2746H318.387L324 71Z" fill="#EFDF89"/>
<path d="M379 71L384.613 88.2746H402.776L388.082 98.9508L393.695 116.225L379 105.549L364.305 116.225L369.918 98.9508L355.224 88.2746H373.387L379 71Z" fill="#EFDF89"/>
<path d="M434 71L439.613 88.2746H457.776L443.082 98.9508L448.695 116.225L434 105.549L419.305 116.225L424.918 98.9508L410.224 88.2746H428.387L434 71Z" fill="#EFDF89"/>
<rect x="40" y="14" width="141" height="172.375" rx="12" fill="#00497E"/>
<path d="M90.76 145.001C90.76 133.515 100.071 124.204 111.558 124.204C123.044 124.204 132.355 133.515 132.355 145.001V186.375H90.76V145.001Z" fill="#EFDF89"/>
<rect x="63.97" y="38.8123" width="19.035" height="20.2243" rx="5" fill="#EFDF89"/>
<rect x="64.675" y="70.2722" width="19.035" height="20.2243" rx="5" fill="#EFDF89"/>
<rect x="89.35" y="38.8123" width="19.035" height="20.2243" rx="5" fill="#EFDF89"/>
<rect x="90.055" y="70.2722" width="19.035" height="20.2243" rx="5" fill="#EFDF89"/>
<rect x="114.73" y="38.8123" width="19.035" height="20.2243" rx="5" fill="#EFDF89"/>
<rect x="115.435" y="70.2722" width="19.035" height="20.2243" rx="5" fill="#EFDF89"/>
<rect x="140.11" y="38.8123" width="19.035" height="20.2243" rx="5" fill="#EFDF89"/>
<rect x="140.815" y="70.2722" width="19.035" height="20.2243" rx="5" fill="#EFDF89"/>
<path d="M313.874 156.199C313.064 156.199 312.339 156.036 311.7 155.709C311.066 155.377 310.559 154.923 310.18 154.345C309.806 153.768 309.607 153.107 309.584 152.364H310.869C310.912 153.135 311.215 153.77 311.778 154.267C312.342 154.759 313.04 155.006 313.874 155.006C314.522 155.006 315.1 154.852 315.607 154.544C316.113 154.232 316.509 153.805 316.793 153.266C317.081 152.721 317.226 152.108 317.226 151.426C317.221 150.716 317.067 150.091 316.764 149.551C316.461 149.007 316.049 148.58 315.528 148.273C315.012 147.965 314.432 147.811 313.788 147.811C313.301 147.806 312.822 147.887 312.354 148.053C311.885 148.218 311.494 148.431 311.182 148.692L309.854 148.521L310.727 141.455H317.915V142.648H311.842L311.26 147.513H311.331C311.653 147.243 312.044 147.023 312.503 146.852C312.967 146.682 313.457 146.597 313.973 146.597C314.83 146.597 315.599 146.803 316.281 147.214C316.968 147.626 317.51 148.195 317.908 148.919C318.31 149.639 318.511 150.467 318.511 151.405C318.511 152.323 318.31 153.145 317.908 153.869C317.51 154.589 316.961 155.157 316.26 155.574C315.564 155.991 314.768 156.199 313.874 156.199ZM326.306 140.773L321.619 158.188H320.433L325.12 140.773H326.306ZM332.702 156.199C331.892 156.199 331.168 156.036 330.528 155.709C329.894 155.377 329.387 154.923 329.009 154.345C328.634 153.768 328.436 153.107 328.412 152.364H329.697C329.74 153.135 330.043 153.77 330.607 154.267C331.17 154.759 331.868 155.006 332.702 155.006C333.35 155.006 333.928 154.852 334.435 154.544C334.941 154.232 335.337 153.805 335.621 153.266C335.91 152.721 336.054 152.108 336.054 151.426C336.049 150.716 335.895 150.091 335.592 149.551C335.289 149.007 334.877 148.58 334.357 148.273C333.84 147.965 333.26 147.811 332.616 147.811C332.129 147.806 331.651 147.887 331.182 148.053C330.713 148.218 330.322 148.431 330.01 148.692L328.682 148.521L329.555 141.455H336.743V142.648H330.67L330.088 147.513H330.159C330.481 147.243 330.872 147.023 331.331 146.852C331.795 146.682 332.285 146.597 332.801 146.597C333.658 146.597 334.428 146.803 335.109 147.214C335.796 147.626 336.338 148.195 336.736 148.919C337.138 149.639 337.339 150.467 337.339 151.405C337.339 152.323 337.138 153.145 336.736 153.869C336.338 154.589 335.789 155.157 335.088 155.574C334.392 155.991 333.597 156.199 332.702 156.199Z" fill="black"/>
</svg>
