<svg width="436" height="500" viewBox="0 0 436 500" fill="none" xmlns="http://www.w3.org/2000/svg">
<path d="M429.371 119.68C449.694 180.167 414.911 254.003 389.898 313.655C364.885 373.308 349.252 418.36 311.342 453.401C273.041 488.024 212.463 511.802 160.092 493.865C108.113 475.927 64.34 416.274 32.6831 334.513C1.0262 252.751 -18.5151 148.881 21.3492 83.8052C60.8226 18.7296 160.092 -7.968 247.247 2.04362C334.01 12.0552 409.439 59.1933 429.371 119.68Z" fill="#DD6A00"/>
<path d="M334.27 290.736L271.904 299.051L248.243 242.423" stroke="black" stroke-width="10"/>
<path d="M191.857 338.884L138.857 358.299L193.947 372.851" stroke="black" stroke-width="10"/>
<path d="M181.281 240.165L158.606 299.051L90.0035 288.657" stroke="black" stroke-width="10"/>
<rect x="178.355" y="224.212" width="74.839" height="118.495" fill="#00AAAA"/>
<ellipse cx="213.696" cy="143.137" rx="51.9715" ry="62.3658" fill="#D9D9D9"/>
<path d="M235.178 339.83L287.016 362.861L226.169 380.127" stroke="black" stroke-width="10"/>
<rect x="190.828" y="392.6" width="39.4984" height="12.4732" transform="rotate(-90 190.828 392.6)" fill="black"/>
<rect x="217.854" y="392.6" width="39.4984" height="12.4732" transform="rotate(-90 217.854 392.6)" fill="black"/>
<path d="M196.025 183.674C196.025 183.674 204.341 193.029 211.617 193.029C218.893 193.029 227.208 183.674 227.208 183.674" stroke="black"/>
</svg>
